<?xml version="1.0" encoding="utf-8"?>
<!-- Generator: Adobe Illustrator 27.5.0, SVG Export Plug-In . SVG Version: 6.00 Build 0)  -->
<svg version="1.1" xmlns="http://www.w3.org/2000/svg" xmlns:xlink="http://www.w3.org/1999/xlink" x="0px" y="0px"
	 viewBox="0 0 500 500" style="enable-background:new 0 0 500 500;" xml:space="preserve">
<g id="BACKGROUND_1_">
	<rect style="fill:#FAEDCD;" width="500" height="500"/>
</g>
<g id="OBJECTS">
	<g>
		<path style="fill:#D4A373;" d="M156.776,298.19c0.101,3.221,0.224,6.441,0.3,9.662c0.214,9.073,0.415,18.147,0.609,27.22
			c0.172,8.054,0.353,16.107,0.484,24.161c0.098,6.025,0.097,12.052,0.186,18.078c0.12,8.184,0.289,16.367,0.426,24.551
			c0.137,8.173,0.25,16.346,0.399,24.518c0.05,2.726,0.073,5.459,0.295,8.174c0.46,5.63,2.979,10.051,7.697,13.332
			c2.746,1.909,5.878,2.969,8.714,4.637c0.814,0.478,1.611,1.012,2.325,1.626c0.8,0.687,0.975,1.656,0.607,2.615
			c-0.372,0.968-1.152,1.438-2.226,1.488c-2.925,0.138-5.451-1.012-7.887-2.416c-2.387-1.376-4.408-3.198-6.156-5.325
			c-0.19-0.231-0.389-0.454-0.882-1.029c0.357,1.878,0.932,3.205,1.671,4.426c2.55,4.215,6.003,7.55,10.352,9.844
			c3.193,1.685,6.554,3.05,9.775,4.684c1.222,0.62,2.39,1.469,3.358,2.439c1.473,1.476,0.939,3.143-1.085,3.749
			c-1.617,0.485-3.252,0.399-4.895,0.05c-3.766-0.801-6.921-2.788-9.861-5.136c-4.348-3.472-7.482-7.9-9.819-12.913
			c-0.426-0.913-0.758-1.869-1.205-2.984c-0.223,0.286-0.428,0.436-0.477,0.627c-1.27,4.923-3.705,9.125-7.549,12.507
			c-2.854,2.512-6.124,4.087-9.906,4.401c-1.94,0.161-3.932,0.161-5.856-0.097c-1.27-0.171-2.531-0.807-3.668-1.459
			c-1.234-0.707-2.062-1.853-2.428-3.284c-0.692-2.702,0.537-4.888,3.29-5.425c1.984-0.387,4.023-0.542,6.045-0.667
			c2.072-0.128,3.97-0.783,5.834-1.604c0.264-0.116,0.488-0.323,0.811-0.543c-1.965,0.056-3.785,0.237-5.588,0.134
			c-4.309-0.244-7.902-2.96-8.948-6.785c-0.291-1.062-0.324-2.282-0.135-3.371c0.408-2.356,2.459-3.132,4.417-1.725
			c1.181,0.848,2.243,1.862,3.371,2.786c1.717,1.406,3.686,1.912,5.868,1.561c2.07-0.333,3.363-1.511,3.595-3.581
			c0.217-1.943,0.274-3.916,0.242-5.873c-0.137-8.183-0.344-16.366-0.505-24.549c-0.145-7.356-0.269-14.713-0.392-22.07
			c-0.137-8.246-0.285-16.493-0.388-24.74c-0.142-11.352-0.238-22.705-0.37-34.057c-0.1-8.622-0.115-17.247-0.367-25.865
			c-0.339-11.609-4.816-21.679-12.047-30.582c-2.516-3.098-5.427-5.813-8.662-8.236c-7.648-5.727-14.367-12.423-20.208-20.016
			c-3.848-5.002-7.166-10.306-9.881-15.987c-3.402-7.12-5.906-14.561-7.771-22.223c-1.809-7.429-2.956-14.947-2.625-22.608
			c0.338-7.824,1.3-15.568,4.383-22.869c3.903-9.245,9.312-17.415,17.188-23.816c6.951-5.65,14.618-9.994,22.973-13.231
			c3.882-1.504,7.852-2.439,11.932-3.056c0.623-0.094,1.243-0.207,2.106-0.351c-0.443-0.471-0.725-0.86-1.088-1.145
			c-5.615-4.399-10.462-9.596-15.401-14.706c-3.985-4.123-7.467-8.619-10.654-13.371c-5.375-8.016-9.334-16.684-12.264-25.864
			c-1.946-6.096-4.039-12.146-6.153-18.187c-2.363-6.755-3.123-13.716-2.718-20.806c0.095-1.662,0.673-3.363,1.344-4.91
			c0.986-2.273,2.488-2.626,4.359-0.962c2.84,2.524,5.601,5.154,8.218,7.908c2.05,2.157,3.838,4.564,5.73,6.871
			c2.68,3.268,6.092,5.211,10.234,6.115c4.855,1.059,9.744,1.731,14.698,1.833c9.263,0.191,18.528,0.294,27.792,0.417
			c7.232,0.096,14.464,0.236,21.696,0.233c7.991-0.004,15.981-0.218,23.972-0.214c8.948,0.004,17.896,0.209,26.844,0.218
			c8.629,0.008,17.259-0.146,25.889-0.184c8.696-0.038,17.391-0.032,26.087-0.024c3.995,0.004,7.99,0.072,11.985,0.084
			c4.628,0.013,9.256,0.009,13.884-0.011c6.155-0.026,12.31-0.069,18.465-0.113c6.41-0.045,12.823-0.008,19.23-0.176
			c6.66-0.174,13.301-0.634,19.81-2.251c3.632-0.902,6.671-2.713,9.086-5.567c2.542-3.003,4.979-6.101,7.644-8.991
			c1.971-2.138,4.177-4.074,6.381-5.981c2.179-1.885,3.612-1.461,4.843,1.205c1.182,2.56,1.28,5.297,1.221,8.022
			c-0.084,3.871-0.288,7.751-1.249,11.523c-0.641,2.513-1.421,4.994-2.236,7.458c-1.754,5.296-3.645,10.547-5.344,15.86
			c-2.637,8.244-5.908,16.166-10.564,23.522c-3.029,4.785-6.186,9.463-9.987,13.637c-3.884,4.266-8.019,8.308-12.136,12.353
			c-1.895,1.862-4.004,3.508-6.037,5.227c-0.279,0.236-0.68,0.328-1.025,0.487c0.118,0.169,0.235,0.337,0.353,0.506
			c1.914,0.322,3.827,0.649,5.742,0.965c3.719,0.614,7.212,1.964,10.658,3.401c6.111,2.548,11.873,5.774,17.201,9.699
			c6.02,4.435,11.167,9.692,15.099,16.15c3.022,4.964,5.638,10.07,7.174,15.681c2.268,8.283,2.904,16.724,2.306,25.276
			c-0.435,6.231-1.735,12.294-3.342,18.315c-1.361,5.097-3.064,10.075-5.138,14.909c-1.973,4.598-4.287,9.028-7.002,13.263
			c-2.82,4.399-5.971,8.537-9.478,12.369c-3.118,3.408-6.499,6.593-9.924,9.7c-2.434,2.208-5.191,4.056-7.702,6.184
			c-3.794,3.215-7.023,6.951-9.773,11.101c-3.392,5.119-5.952,10.614-7.375,16.595c-0.956,4.018-1.325,8.113-1.324,12.249
			c0.001,4.252-0.09,8.504-0.143,12.757c-0.099,7.987-0.203,15.973-0.297,23.959c-0.065,5.52-0.114,11.041-0.177,16.561
			c-0.092,8.049-0.165,16.098-0.291,24.147c-0.149,9.509-0.325,19.018-0.528,28.526c-0.165,7.738-0.415,15.474-0.564,23.212
			c-0.033,1.701,0.126,3.417,0.333,5.109c0.246,2.015,1.408,3.173,3.396,3.538c2.244,0.411,4.275-0.093,6.05-1.546
			c1.128-0.923,2.193-1.931,3.377-2.775c1.982-1.413,3.882-0.654,4.417,1.743c0.589,2.641-0.327,4.892-2.072,6.817
			c-1.872,2.064-4.275,3.182-7.042,3.324c-1.819,0.093-3.651-0.079-5.819-0.143c2.129,1.149,4.097,1.886,6.253,2.09
			c1.579,0.149,3.161,0.261,4.742,0.395c0.379,0.032,0.76,0.068,1.135,0.132c1.841,0.314,3.49,0.997,4.078,2.943
			c0.604,1.996-0.011,3.777-1.481,5.218c-1.305,1.28-2.911,2.03-4.718,2.287c-6.591,0.936-12.285-0.831-16.988-5.635
			c-3.003-3.068-4.949-6.708-6.078-10.819c-0.095-0.347-0.233-0.682-0.475-1.381c-0.464,1.19-0.762,2.074-1.146,2.919
			c-2.953,6.512-7.256,11.902-13.369,15.705c-2.824,1.757-5.844,3.097-9.283,2.989c-0.814-0.026-1.659-0.146-2.423-0.414
			c-1.673-0.586-2.169-2.201-0.935-3.456c1.047-1.065,2.312-2.003,3.64-2.685c3.27-1.679,6.74-2.987,9.931-4.794
			c5.136-2.908,9.242-6.883,11.371-12.574c0.104-0.277,0.159-0.573,0.347-1.27c-1.487,1.476-2.621,2.705-3.863,3.813
			c-2.452,2.187-5.266,3.753-8.493,4.464c-0.914,0.201-1.896,0.272-2.825,0.183c-1.88-0.182-2.802-2.202-1.622-3.665
			c0.653-0.809,1.596-1.454,2.525-1.956c1.894-1.022,3.895-1.845,5.802-2.845c3.839-2.011,7.077-4.662,9.019-8.674
			c1.418-2.93,1.837-6.068,1.916-9.246c0.129-5.202,0.086-10.409,0.166-15.612c0.128-8.37,0.306-16.74,0.444-25.11
			c0.13-7.863,0.24-15.725,0.349-23.588c0.108-7.798,0.16-15.596,0.314-23.393c0.212-10.786,0.488-21.571,0.753-32.357
			c0.101-4.123,0.25-8.245,0.375-12.367c0.011-0.375,0.002-0.75,0.002-1.577c-0.458,0.646-0.734,0.927-0.884,1.264
			c-1.053,2.377-2.068,4.771-3.124,7.146c-0.283,0.636-0.638,1.243-1.004,1.837c-2.878,4.673-8.378,4.365-11.129-0.213
			c-1.905-3.17-1.636-6.592,0.121-9.813c1.322-2.425,3.19-4.365,5.458-5.999c4.093-2.947,8.612-5.116,13.037-7.46
			c9.103-4.82,17.791-10.257,25.627-16.989c8.231-7.072,15.352-15.088,21.061-24.349c2.672-4.335,4.864-8.888,6.853-13.564
			c2.313-5.439,4.127-11.031,5.5-16.773c1.767-7.39,2.541-14.904,1.998-22.462c-0.59-8.226-2.69-16.088-6.709-23.403
			c-5.012-9.123-12.224-15.906-21.285-20.886c-7.692-4.228-16.026-6.607-24.459-8.702c-3.442-0.855-6.95-1.446-10.423-2.182
			c-1.036-0.219-1.919-0.064-2.906,0.421c-5.748,2.823-11.682,5.175-17.818,7.05c-5.35,1.634-10.763,2.969-16.31,3.578
			c-5.317,0.584-10.669,0.71-15.715-1.582c-1.139-0.518-2.255-1.187-3.211-1.99c-2.409-2.025-1.852-4.694,1.187-5.599
			c1.506-0.448,3.1-0.711,4.67-0.815c8.67-0.575,17.347-1.054,26.018-1.614c3.242-0.209,6.381-0.996,9.466-1.994
			c5.921-1.915,11.698-4.164,17.205-7.1c5.397-2.877,10.424-6.247,14.991-10.332c5.743-5.137,10.831-10.853,15.479-16.98
			c4.044-5.33,7.412-11.058,9.829-17.293c0.836-2.157,1.462-4.493,1.622-6.787c0.158-2.263-0.716-4.484-1.753-6.553
			c-2.934-5.852-7.926-8.976-14.116-10.209c-3.089-0.616-6.301-0.823-9.459-0.843c-9.518-0.062-19.037,0.022-28.555,0.118
			c-8.562,0.086-17.123,0.223-25.683,0.413c-7.99,0.177-15.977,0.516-23.967,0.672c-9.453,0.184-18.908,0.324-28.363,0.346
			c-11.425,0.027-22.85-0.053-34.275-0.16c-6.597-0.062-13.193-0.235-19.787-0.418c-8.686-0.241-17.369-0.604-26.056-0.794
			c-6.912-0.151-13.828-0.113-20.742-0.171c-4.76-0.04-9.52-0.171-14.279-0.129c-4.881,0.043-9.79-0.113-14.608,0.889
			c-7.873,1.638-13.474,5.856-15.791,13.892c-0.986,3.419-0.089,6.527,1.134,9.606c1.972,4.964,4.552,9.604,7.53,14.047
			c4.473,6.671,9.749,12.663,15.486,18.228c5.768,5.594,12.354,10.09,19.605,13.621c6.011,2.928,12.227,5.304,18.684,6.956
			c3.048,0.78,6.251,1.03,9.402,1.312c4.865,0.436,9.744,0.721,14.62,1.014c2.468,0.148,4.948,0.102,7.413,0.28
			c1.634,0.118,3.271,0.389,4.869,0.756c1.266,0.291,2.414,0.959,2.713,2.378c0.312,1.481-0.467,2.542-1.553,3.45
			c-2.217,1.853-4.865,2.713-7.628,3.207c-5.258,0.94-10.491,0.45-15.701-0.487c-5.434-0.978-10.777-2.367-15.949-4.258
			c-4.692-1.717-9.248-3.811-13.829-5.819c-0.805-0.353-1.53-0.523-2.368-0.372c-6.24,1.131-12.435,2.452-18.498,4.344
			c-4.295,1.34-8.58,2.68-12.686,4.567c-10.307,4.737-18.72,11.645-24.514,21.473c-3.275,5.555-5.559,11.535-6.518,17.957
			c-0.402,2.69-0.929,5.384-1.031,8.091c-0.301,8.025,0.619,15.915,2.674,23.712c2.178,8.265,5.285,16.14,9.26,23.669
			c4.051,7.673,9.381,14.418,15.301,20.756c4.398,4.708,9.258,8.848,14.348,12.733c4.385,3.347,9.062,6.285,13.886,8.963
			c3.991,2.216,8.072,4.271,12.058,6.495c2.213,1.234,4.319,2.66,6.462,4.018c2.243,1.421,3.927,3.359,5.34,5.598
			c1.712,2.712,1.974,5.6,1.184,8.598c-0.71,2.698-3.968,5.894-7.696,5.103c-1.833-0.389-3.101-1.462-4.023-2.941
			c-0.868-1.392-1.577-2.892-2.258-4.388c-0.884-1.941-1.672-3.926-2.501-5.892C157.129,298.095,156.952,298.142,156.776,298.19z
			 M348.003,311.506c-0.167,0.005-0.333,0.011-0.5,0.016c-0.034,1.044-0.087,2.087-0.1,3.131
			c-0.117,10.219-0.225,20.437-0.34,30.656c-0.084,7.424-0.141,14.848-0.274,22.271c-0.112,6.28-0.36,12.557-0.464,18.837
			c-0.1,6.03-0.077,12.061-0.138,18.092c-0.096,9.517-0.292,19.033-0.293,28.549c-0.001,4.118,0.263,8.246,0.62,12.35
			c0.257,2.949,0.868,5.867,1.362,9.062c-0.462-0.728-0.84-1.273-1.167-1.848c-1.565-2.742-2.324-5.742-2.814-8.83
			c-0.057-0.362-0.256-0.702-0.389-1.052c-0.143,0.021-0.286,0.042-0.429,0.063c-0.109,2.077-0.485,4.182-0.277,6.227
			c0.631,6.188,3.023,11.608,7.641,15.927c4.053,3.791,8.908,4.904,14.268,4.265c1.408-0.168,2.692-0.751,3.717-1.773
			c0.765-0.763,1.117-1.718,0.87-2.779c-0.253-1.086-1.161-1.459-2.146-1.599c-1.003-0.142-2.019-0.29-3.027-0.278
			c-3.386,0.04-6.515-0.923-9.503-2.387c-1.301-0.637-2.655-1.336-3.298-2.757c-0.756-1.67-1.573-3.338-2.082-5.09
			c-1.59-5.478-1.803-11.137-1.811-16.788c-0.009-6.598,0.145-13.196,0.242-19.793c0.118-7.995,0.233-15.989,0.381-23.983
			c0.114-6.155,0.313-12.308,0.409-18.462c0.156-10.023,0.358-20.047,0.356-30.07c-0.002-8.949-0.237-17.898-0.41-26.846
			C348.371,314.912,348.141,313.21,348.003,311.506z M153.837,311.634c-0.145-0.015-0.289-0.03-0.433-0.045
			c-0.118,0.389-0.314,0.773-0.341,1.168c-0.154,2.279-0.352,4.56-0.38,6.842c-0.104,8.371-0.217,16.743-0.196,25.114
			c0.025,9.897,0.15,19.794,0.301,29.689c0.095,6.214,0.349,12.426,0.47,18.639c0.165,8.438,0.272,16.877,0.402,25.316
			c0.134,8.756,0.463,17.517-0.292,26.26c-0.383,4.441-1.058,8.838-3.374,12.767c-0.465,0.788-1.113,1.573-1.869,2.065
			c-3.081,2.007-6.467,3.159-10.176,3.309c-1.392,0.056-2.802,0.118-4.162,0.387c-1.757,0.347-2.406,1.659-1.652,3.285
			c0.301,0.651,0.868,1.321,1.49,1.649c1.047,0.551,2.208,1.066,3.366,1.194c6.995,0.773,12.506-1.902,16.659-7.494
			c1.991-2.681,3.398-5.679,4.117-8.922c0.951-4.292,1.27-5.969-0.154-10.63c-0.765,4.449-1.571,8.608-4.389,12.316
			c0.495-2.683,1.064-5.07,1.356-7.49c0.794-6.565,0.817-13.175,0.786-19.773c-0.044-9.201-0.26-18.402-0.378-27.603
			c-0.071-5.586-0.048-11.174-0.15-16.759c-0.173-9.517-0.466-19.032-0.608-28.55c-0.182-12.179-0.268-24.359-0.388-36.538
			C153.82,315.765,153.837,313.699,153.837,311.634z M170.418,302.987c-0.026-1.509-1.497-2.981-2.922-2.923
			c-1.507,0.061-2.84,1.531-2.769,3.054c0.072,1.555,1.487,2.855,3.028,2.781C169.26,305.828,170.444,304.532,170.418,302.987z
			 M333.466,305.902c1.532,0.069,2.945-1.23,3.038-2.793c0.087-1.468-1.304-2.988-2.792-3.048c-1.384-0.056-2.764,1.26-2.873,2.741
			C330.716,304.469,331.871,305.831,333.466,305.902z M324.26,456.006c3.455,0.871,10.377-2.978,12.013-6.659
			C332.522,452.426,327.943,453.362,324.26,456.006z M177.269,456.142c-1.304-1.382-2.849-1.672-4.142-2.358
			c-1.279-0.678-2.658-1.166-3.953-1.815c-1.307-0.654-2.565-1.404-4.219-2.319C167.7,453.709,173.634,456.858,177.269,456.142z"/>
	</g>
	<g>
		<g>
			<path style="fill:#D4A373;" d="M131.53,121.349c-1.482,0.727-2.72,1.336-3.958,1.943c-6.149,3.015-12.14,6.3-18.008,9.846
				c-7.277,4.396-12.525,10.583-16.913,17.689c-3.214,5.206-5.863,10.664-7.705,16.495c-2.893,9.158-4.961,18.476-5.425,28.112
				c-0.185,3.845,0.383,7.599,1.127,11.331c0.719,3.607,1.548,7.194,2.425,10.766c1.354,5.515,3.66,10.674,6.194,15.725
				c5.872,11.704,13.314,22.349,21.996,32.129c4.848,5.461,9.84,10.793,14.683,16.258c2.946,3.324,5.836,6.707,8.56,10.213
				c2.834,3.648,4.813,7.763,5.644,12.356c0.74,4.094-1.775,9.389-5.376,11.41c-2.331,1.308-4.514,1.104-6.482-0.717
				c-1.787-1.653-2.9-3.719-3.071-6.158c-0.101-1.445-0.005-2.922,0.173-4.364c0.37-3.001,0.286-5.961-0.525-8.876
				c-1.162-4.174-2.602-8.251-5.341-11.682c-4.712-5.903-9.418-11.816-14.302-17.576c-5.759-6.793-11.318-13.71-15.705-21.497
				c-3.932-6.98-7.384-14.197-10.234-21.676c-1.9-4.988-2.887-10.246-3.669-15.528c-1.377-9.311-0.846-18.641,0.183-27.904
				c1.501-13.525,6.429-25.783,14.95-36.481c4.031-5.061,9.044-9.033,14.455-12.534c3.148-2.038,6.404-3.86,9.852-5.337
				c0.164-0.07,0.324-0.151,0.485-0.227c-0.072-0.125-0.144-0.249-0.215-0.374c-1.643,0.401-3.296,0.766-4.928,1.209
				c-6.452,1.751-12.577,4.281-18.374,7.628c-7.595,4.384-13.481,10.446-18.053,17.888c-3.661,5.958-6.985,12.089-9.317,18.68
				c-1.199,3.389-1.82,6.981-2.733,10.473c-0.528,2.018-1.004,4.062-1.729,6.011c-0.383,1.031-1.145,1.98-1.918,2.793
				c-1.317,1.385-2.954,1.345-4.418,0.111c-1.233-1.039-1.777-2.451-2.174-3.934c-1.229-4.589-0.557-9.079,0.897-13.476
				c3.171-9.584,8.748-17.685,15.667-24.913c8.933-9.333,19.643-15.967,31.664-20.538c3.198-1.216,6.485-2.195,9.731-3.285
				c0.472-0.159,0.941-0.327,1.39-0.564c-8.481,0.75-16.841,2.24-24.919,4.845c-7.496,2.417-14.699,5.619-20.889,10.676
				c-1.814,1.482-3.479,3.15-5.318,4.598c-0.813,0.64-1.853,1.065-2.855,1.374c-1.183,0.364-2.081-0.242-2.697-1.272
				c-0.686-1.148-0.846-2.372-0.552-3.67c0.463-2.045,1.528-3.746,2.989-5.211c3.492-3.504,7.604-6.099,12.091-8.114
				c6.642-2.983,13.61-4.832,20.823-5.734c4.141-0.518,8.3-0.9,12.487-1.508c-1.281-0.172-2.57-0.3-3.842-0.524
				c-8.744-1.542-17.487-3.11-25.984-5.754c-1.931-0.601-3.806-1.41-5.655-2.237c-1.598-0.715-2.355-1.896-2.177-3.031
				c0.191-1.22,1.304-2.044,3.171-2.239c2.761-0.288,5.457,0.226,8.074,0.989c6.998,2.043,13.96,4.208,20.941,6.306
				c4.063,1.221,8.137,2.409,12.209,3.599c0.348,0.102,0.726,0.105,1.161-0.037c-0.305-0.188-0.595-0.409-0.918-0.559
				c-8.526-3.963-16.7-8.551-24.61-13.634c-5.606-3.601-11.191-7.226-16.367-11.43c-1.316-1.069-2.42-2.406-3.578-3.66
				c-0.333-0.361-0.539-0.852-0.755-1.306c-0.729-1.531,0.508-3.02,1.936-2.818c1.096,0.155,2.29,0.434,3.185,1.037
				c3.208,2.161,6.289,4.509,9.451,6.74c6.266,4.422,12.46,8.953,18.863,13.168c4.601,3.029,9.49,5.621,14.256,8.398
				c0.359,0.209,0.766,0.336,1.308,0.278c-0.291-0.257-0.568-0.534-0.876-0.769c-7.576-5.782-14.836-11.937-21.629-18.62
				c-4.523-4.449-8.999-8.956-13.299-13.619c-3.405-3.693-6.312-7.798-8.107-12.56c-0.373-0.99-0.535-2.081-0.648-3.141
				c-0.11-1.036,0.054-2.099,1.117-2.634c1.114-0.561,2.279-0.446,3.191,0.402c1.06,0.985,2.137,2.009,2.947,3.194
				c1.931,2.827,3.736,5.742,5.543,8.652c4.061,6.539,8.78,12.58,13.775,18.421c5.918,6.919,12.455,13.186,19.642,18.772
				c2.202,1.712,4.455,3.359,6.698,5.017c0.322,0.238,0.72,0.373,1.267,0.29c-1.143-1.235-2.251-2.505-3.436-3.698
				c-5.384-5.422-10.121-11.349-14.145-17.851c-2.601-4.202-5.443-8.263-7.88-12.556c-3.063-5.397-5.915-10.921-8.68-16.479
				c-1.719-3.455-3.257-7.02-4.593-10.64c-0.892-2.419-1.404-5.001-1.865-7.55c-0.342-1.895,0.173-2.804,1.278-3.236
				c0.986-0.386,2.302,0.058,3.224,1.461c0.896,1.363,1.616,2.873,2.212,4.397c2.219,5.669,4.265,11.407,6.547,17.049
				c2.926,7.236,6.082,14.386,10.116,21.082c2.091,3.47,4.492,6.772,6.955,9.995c4.816,6.302,9.753,12.512,14.688,18.721
				c1.102,1.387,2.413,2.608,3.615,3.916C130.813,120.379,131.058,120.743,131.53,121.349z M132.371,312.029
				c2.233,0.041,4.142-1.575,4.152-3.517c0.013-2.385-1.8-4.233-4.157-4.238c-2.319-0.005-3.865,1.527-3.959,3.921
				C128.319,310.435,129.921,311.984,132.371,312.029z M56.37,185.915c1.126,0.012,2.113-1.011,2.12-2.199
				c0.007-1.206-0.9-2.142-2.12-2.187c-1.341-0.049-2.382,0.891-2.367,2.141C54.016,184.826,55.151,185.901,56.37,185.915z
				 M59.98,139.292c0.044-0.913-0.728-1.747-1.621-1.752c-0.82-0.005-1.553,0.726-1.588,1.583c-0.039,0.957,0.645,1.667,1.639,1.703
				C59.279,140.858,59.935,140.218,59.98,139.292z"/>
		</g>
		<g>
			<path style="fill:#D4A373;" d="M388.034,112.584c1.435-0.74,2.889-1.446,4.303-2.225c7.674-4.228,15.033-8.953,22.122-14.1
				c5.44-3.951,10.868-7.918,16.31-11.865c0.717-0.52,1.44-1.081,2.246-1.415c0.798-0.33,1.708-0.562,2.562-0.544
				c1.59,0.034,2.41,1.313,1.743,2.769c-0.465,1.015-1.099,2.055-1.924,2.782c-2.375,2.09-4.796,4.151-7.359,6.001
				c-8.133,5.873-16.627,11.192-25.435,15.993c-3.227,1.758-6.567,3.309-9.854,4.956c-0.553,0.277-1.103,0.56-1.547,1.163
				c1.125-0.296,2.26-0.558,3.373-0.895c9.22-2.787,18.428-5.615,27.657-8.37c3.278-0.979,6.579-1.977,10.052-1.898
				c1.049,0.024,2.177,0.199,3.116,0.633c1.604,0.741,1.819,2.364,0.556,3.585c-0.577,0.558-1.316,0.993-2.049,1.34
				c-4.966,2.357-10.295,3.599-15.617,4.739c-6.195,1.327-12.466,2.303-18.704,3.435c-0.177,0.032-0.348,0.1-0.941,0.275
				c1.799,0.185,3.182,0.38,4.572,0.461c8.399,0.49,16.623,1.902,24.56,4.743c5.835,2.089,11.255,4.93,15.851,9.181
				c1.659,1.534,3.088,3.243,3.61,5.478c0.236,1.011,0.311,2.176,0.049,3.163c-0.617,2.33-2.489,3.08-4.587,1.879
				c-1.143-0.655-2.222-1.496-3.159-2.425c-4.666-4.626-10.191-7.89-16.136-10.574c-8.403-3.793-17.248-5.901-26.32-7.217
				c-1.755-0.255-3.51-0.518-5.266-0.763c-0.177-0.025-0.367,0.047-0.636,0.334c0.615,0.194,1.226,0.398,1.844,0.58
				c9.187,2.697,17.888,6.493,25.896,11.758c10.615,6.979,19.261,15.851,25.495,26.994c2.78,4.968,4.889,10.157,5.613,15.848
				c0.367,2.885,0.068,5.702-0.939,8.419c-0.301,0.812-0.767,1.62-1.346,2.26c-1.675,1.854-3.595,1.786-5.215-0.081
				c-1.055-1.216-1.834-2.587-2.204-4.159c-0.71-3.023-1.381-6.055-2.086-9.079c-1.042-4.466-2.735-8.688-4.711-12.819
				c-3.018-6.311-6.478-12.345-10.791-17.868c-3.888-4.979-8.771-8.788-14.206-11.907c-7.264-4.169-15.086-6.873-23.256-8.614
				c-0.174-0.037-0.363-0.005-0.829-0.005c1.56,0.712,2.875,1.292,4.173,1.907c5.305,2.517,10.181,5.751,14.669,9.48
				c6.732,5.594,11.742,12.575,15.446,20.501c1.937,4.144,3.528,8.414,4.721,12.828c1.362,5.039,2.177,10.169,2.365,15.388
				c0.174,4.816,0.375,9.633,0.418,14.451c0.059,6.522-1.203,12.873-2.837,19.152c-2.03,7.798-5.732,14.904-9.308,22.051
				c-4.577,9.147-10.62,17.285-17.297,24.993c-4.032,4.655-7.946,9.413-11.861,14.168c-1.33,1.615-2.546,3.329-3.737,5.051
				c-2.939,4.248-4.704,8.976-5.402,14.073c-0.222,1.617-0.089,3.289-0.041,4.933c0.044,1.521,0.264,3.038,0.276,4.558
				c0.018,2.469-1,4.575-2.622,6.369c-2.121,2.344-4.695,2.64-7.363,0.948c-3.798-2.407-5.89-7.822-4.753-12.381
				c0.964-3.866,2.558-7.487,5.029-10.594c3.395-4.269,6.966-8.403,10.553-12.514c6.136-7.032,12.55-13.832,18.471-21.038
				c8.711-10.602,15.779-22.243,20.797-35.078c1.673-4.279,2.643-8.731,3.612-13.19c0.566-2.603,1.068-5.223,1.51-7.85
				c0.95-5.651,0.326-11.284-0.544-16.861c-1.323-8.481-3.385-16.807-6.772-24.716c-3.416-7.977-7.905-15.313-14-21.579
				c-2.945-3.027-6.443-5.314-10.021-7.497c-6.124-3.736-12.469-7.051-18.983-10.05c-0.386-0.177-0.711-0.485-1.142-0.786
				c0.356-0.475,0.612-0.913,0.957-1.262c5.598-5.663,10.302-12.063,15.098-18.38c3.107-4.092,6.266-8.173,8.991-12.517
				c2.585-4.122,4.764-8.518,6.893-12.905c4.187-8.626,7.425-17.647,10.771-26.62c0.421-1.128,0.829-2.284,1.44-3.309
				c0.537-0.901,1.23-1.804,2.067-2.412c1.619-1.177,3.184-0.363,3.319,1.623c0.051,0.755,0.081,1.549-0.094,2.274
				c-0.535,2.215-1.017,4.463-1.804,6.594c-2.331,6.311-5.365,12.302-8.418,18.293c-3.722,7.305-8.113,14.187-12.554,21.052
				c-2.689,4.158-5.42,8.287-8.722,11.988c-2.87,3.217-5.856,6.329-8.791,9.488c-0.17,0.183-0.34,0.368-0.41,0.773
				c0.393-0.187,0.823-0.323,1.174-0.57c6.656-4.678,12.914-9.83,18.727-15.534c5.725-5.617,10.913-11.702,15.67-18.131
				c3.127-4.226,5.853-8.749,8.755-13.141c1.118-1.693,2.139-3.46,3.373-5.063c0.796-1.035,1.787-2.012,2.889-2.697
				c1.821-1.132,3.726-0.107,3.793,2.019c0.037,1.168-0.219,2.408-0.619,3.516c-1.705,4.732-4.639,8.736-7.903,12.469
				c-7.368,8.426-15.489,16.099-24.001,23.351c-3.91,3.331-7.985,6.467-11.988,9.687c-0.192,0.154-0.411,0.275-0.617,0.411
				C387.878,112.357,387.956,112.471,388.034,112.584z M368.787,312.03c2.859,0.109,4.091-2.108,4.058-3.773
				c-0.048-2.418-1.727-4.042-4.119-3.979c-2.314,0.061-3.983,1.806-3.989,4.173C364.731,310.466,366.527,312.053,368.787,312.03z
				 M444.831,185.909c1.252-0.015,2.339-1.043,2.36-2.234c0.023-1.258-0.994-2.186-2.346-2.141
				c-1.215,0.041-2.143,0.982-2.141,2.174C442.706,184.874,443.72,185.922,444.831,185.909z M444.47,139.172
				c-0.013-0.83-0.751-1.601-1.559-1.629c-0.897-0.031-1.674,0.765-1.661,1.702c0.013,0.942,0.638,1.595,1.514,1.585
				C443.738,140.818,444.484,140.093,444.47,139.172z"/>
		</g>
	</g>
	<g>
		<path style="fill:#D4A373;" d="M256.614,69.846c0.04,3.785-2.228,6.253-5.871,6.255c-4.19,0.003-5.929-2.349-6.158-5.979
			c-0.203-3.221,2.654-6.149,5.884-6.233C253.74,63.806,256.877,66.944,256.614,69.846z"/>
		<path style="fill:#D4A373;" d="M224.608,68.274c-0.006,2.277-1.45,3.589-3.949,3.589c-2.108-0.001-3.672-1.62-3.633-3.764
			c0.036-2.003,1.8-3.862,3.687-3.826C222.478,64.306,224.746,65.604,224.608,68.274z"/>
		<path style="fill:#D4A373;" d="M280.39,71.855c-2.479-0.073-3.904-1.477-3.793-3.737c0.111-2.266,1.911-3.973,4.06-3.853
			c1.916,0.107,3.539,1.947,3.52,3.99C284.157,70.38,282.539,71.919,280.39,71.855z"/>
		<path style="fill:#D4A373;" d="M269.517,68.87c0.056,1.867-1.673,3.773-3.508,3.866c-1.943,0.098-3.47-1.472-3.566-3.668
			c-0.083-1.898,1.485-3.568,3.397-3.617C267.698,65.405,269.462,67.044,269.517,68.87z"/>
		<path style="fill:#D4A373;" d="M238.747,68.951c-0.005,2.179-1.482,3.814-3.421,3.788c-1.865-0.025-3.568-1.801-3.593-3.747
			c-0.024-1.842,1.636-3.509,3.526-3.541C237.202,65.418,238.752,66.973,238.747,68.951z"/>
		<path style="fill:#D4A373;" d="M295.725,63.899c1.854,0.297,3.198,1.125,3.194,3.491c-0.003,1.571-1.338,2.754-2.992,2.735
			c-2.117-0.024-3.373-1.247-3.343-3.255C292.606,65.414,294.261,63.848,295.725,63.899z"/>
		<path style="fill:#D4A373;" d="M205.342,70.12c-1.745,0.045-3.087-1.202-3.084-2.863c0.004-1.806,1.366-3.249,3.17-3.356
			c1.464-0.087,3.12,1.43,3.181,2.913C208.692,68.825,207.466,70.066,205.342,70.12z"/>
		<path style="fill:#D4A373;" d="M191.785,63.457c1.316-0.046,2.327,0.886,2.367,2.183c0.037,1.2-1.02,2.35-2.213,2.407
			c-1.396,0.067-2.409-0.802-2.422-2.078C189.501,64.495,190.395,63.506,191.785,63.457z"/>
		<path style="fill:#D4A373;" d="M309.341,68.048c-1.172-0.021-2.311-1.178-2.307-2.342c0.004-1.285,1.017-2.264,2.328-2.25
			c1.447,0.015,2.452,1.135,2.37,2.64C311.669,67.238,310.647,68.072,309.341,68.048z"/>
		<path style="fill:#D4A373;" d="M183.213,64.978c0.002,1.07-1.012,2.078-2.074,2.062c-0.979-0.015-1.802-0.82-1.844-1.805
			c-0.05-1.15,0.825-2.111,1.945-2.137C182.29,63.072,183.211,63.951,183.213,64.978z"/>
		<path style="fill:#D4A373;" d="M321.905,65.208c-0.031,1.076-0.94,1.911-2,1.834c-0.979-0.071-1.898-1.048-1.913-2.035
			c-0.016-1.024,0.893-1.917,1.948-1.91C321.07,63.105,321.938,64.037,321.905,65.208z"/>
		<path style="fill:#D4A373;" d="M331.113,64.207c-0.039,0.789-0.735,1.507-1.443,1.486c-0.701-0.02-1.361-0.653-1.372-1.315
			c-0.014-0.782,0.814-1.612,1.586-1.59C330.565,62.807,331.149,63.481,331.113,64.207z"/>
		<path style="fill:#D4A373;" d="M172.891,64.341c0.007,0.687-0.603,1.311-1.315,1.348c-0.717,0.037-1.406-0.646-1.458-1.445
			c-0.049-0.76,0.475-1.407,1.174-1.45C172.067,62.747,172.883,63.536,172.891,64.341z"/>
		<path style="fill:#D4A373;" d="M338.712,63.661c-0.676,0.462-1.054,0.922-1.382,0.889c-0.36-0.036-0.674-0.527-1.008-0.819
			c0.307-0.326,0.581-0.866,0.93-0.918C337.584,62.762,337.994,63.217,338.712,63.661z"/>
		<path style="fill:#D4A373;" d="M165.337,63.818c-0.734,0.385-1.103,0.716-1.501,0.756c-0.574,0.058-1.014-0.39-0.84-0.935
			c0.116-0.363,0.637-0.799,1.001-0.822C164.321,62.797,164.678,63.298,165.337,63.818z"/>
		<path style="fill:#D4A373;" d="M345.399,63.532c-0.633,0.346-1.017,0.729-1.293,0.662c-0.305-0.074-0.613-0.531-0.707-0.879
			c-0.038-0.139,0.513-0.628,0.764-0.605C344.501,62.74,344.806,63.113,345.399,63.532z"/>
		<path style="fill:#D4A373;" d="M157.03,64.633c-0.392-0.575-0.826-0.937-0.774-1.207c0.057-0.296,0.536-0.632,0.881-0.702
			c0.188-0.038,0.692,0.461,0.674,0.687C157.784,63.748,157.422,64.059,157.03,64.633z"/>
	</g>
</g>
</svg>
