<svg xmlns="http://www.w3.org/2000/svg" xml:space="preserve" viewBox="0 0 500 500"><path d="M0 0h500v500H0z" style="fill:#faedcd"/><path d="M156.776 298.19c.101 3.221.224 6.441.3 9.662q.32 13.61.609 27.22c.172 8.054.353 16.107.484 24.161.098 6.025.097 12.052.186 18.078.12 8.184.289 16.367.426 24.551.137 8.173.25 16.346.399 24.518.05 2.726.073 5.459.295 8.174.46 5.63 2.979 10.051 7.697 13.332 2.746 1.909 5.878 2.969 8.714 4.637.814.478 1.611 1.012 2.325 1.626.8.687.975 1.656.607 2.615-.372.968-1.152 1.438-2.226 1.488-2.925.138-5.451-1.012-7.887-2.416-2.387-1.376-4.408-3.198-6.156-5.325-.19-.231-.389-.454-.882-1.029.357 1.878.932 3.205 1.671 4.426 2.55 4.215 6.003 7.55 10.352 9.844 3.193 1.685 6.554 3.05 9.775 4.684 1.222.62 2.39 1.469 3.358 2.439 1.473 1.476.939 3.143-1.085 3.749-1.617.485-3.252.399-4.895.05-3.766-.801-6.921-2.788-9.861-5.136-4.348-3.472-7.482-7.9-9.819-12.913-.426-.913-.758-1.869-1.205-2.984-.223.286-.428.436-.477.627-1.27 4.923-3.705 9.125-7.549 12.507-2.854 2.512-6.124 4.087-9.906 4.401-1.94.161-3.932.161-5.856-.097-1.27-.171-2.531-.807-3.668-1.459-1.234-.707-2.062-1.853-2.428-3.284-.692-2.702.537-4.888 3.29-5.425 1.984-.387 4.023-.542 6.045-.667 2.072-.128 3.97-.783 5.834-1.604.264-.116.488-.323.811-.543-1.965.056-3.785.237-5.588.134-4.309-.244-7.902-2.96-8.948-6.785-.291-1.062-.324-2.282-.135-3.371.408-2.356 2.459-3.132 4.417-1.725 1.181.848 2.243 1.862 3.371 2.786 1.717 1.406 3.686 1.912 5.868 1.561 2.07-.333 3.363-1.511 3.595-3.581.217-1.943.274-3.916.242-5.873-.137-8.183-.344-16.366-.505-24.549-.145-7.356-.269-14.713-.392-22.07-.137-8.246-.285-16.493-.388-24.74-.142-11.352-.238-22.705-.37-34.057-.1-8.622-.115-17.247-.367-25.865-.339-11.609-4.816-21.679-12.047-30.582-2.516-3.098-5.427-5.813-8.662-8.236-7.648-5.727-14.367-12.423-20.208-20.016-3.848-5.002-7.166-10.306-9.881-15.987-3.402-7.12-5.906-14.561-7.771-22.223-1.809-7.429-2.956-14.947-2.625-22.608.338-7.824 1.3-15.568 4.383-22.869 3.903-9.245 9.312-17.415 17.188-23.816 6.951-5.65 14.618-9.994 22.973-13.231 3.882-1.504 7.852-2.439 11.932-3.056.623-.094 1.243-.207 2.106-.351-.443-.471-.725-.86-1.088-1.145-5.615-4.399-10.462-9.596-15.401-14.706-3.985-4.123-7.467-8.619-10.654-13.371-5.375-8.016-9.334-16.684-12.264-25.864-1.946-6.096-4.039-12.146-6.153-18.187-2.363-6.755-3.123-13.716-2.718-20.806.095-1.662.673-3.363 1.344-4.91.986-2.273 2.488-2.626 4.359-.962 2.84 2.524 5.601 5.154 8.218 7.908 2.05 2.157 3.838 4.564 5.73 6.871 2.68 3.268 6.092 5.211 10.234 6.115 4.855 1.059 9.744 1.731 14.698 1.833 9.263.191 18.528.294 27.792.417 7.232.096 14.464.236 21.696.233 7.991-.004 15.981-.218 23.972-.214 8.948.004 17.896.209 26.844.218 8.629.008 17.259-.146 25.889-.184 8.696-.038 17.391-.032 26.087-.024 3.995.004 7.99.072 11.985.084q6.942.02 13.884-.011c6.155-.026 12.31-.069 18.465-.113 6.41-.045 12.823-.008 19.23-.176 6.66-.174 13.301-.634 19.81-2.251 3.632-.902 6.671-2.713 9.086-5.567 2.542-3.003 4.979-6.101 7.644-8.991 1.971-2.138 4.177-4.074 6.381-5.981 2.179-1.885 3.612-1.461 4.843 1.205 1.182 2.56 1.28 5.297 1.221 8.022-.084 3.871-.288 7.751-1.249 11.523-.641 2.513-1.421 4.994-2.236 7.458-1.754 5.296-3.645 10.547-5.344 15.86-2.637 8.244-5.908 16.166-10.564 23.522-3.029 4.785-6.186 9.463-9.987 13.637-3.884 4.266-8.019 8.308-12.136 12.353-1.895 1.862-4.004 3.508-6.037 5.227-.279.236-.68.328-1.025.487l.353.506c1.914.322 3.827.649 5.742.965 3.719.614 7.212 1.964 10.658 3.401 6.111 2.548 11.873 5.774 17.201 9.699 6.02 4.435 11.167 9.692 15.099 16.15 3.022 4.964 5.638 10.07 7.174 15.681 2.268 8.283 2.904 16.724 2.306 25.276-.435 6.231-1.735 12.294-3.342 18.315a109 109 0 0 1-5.138 14.909c-1.973 4.598-4.287 9.028-7.002 13.263-2.82 4.399-5.971 8.537-9.478 12.369-3.118 3.408-6.499 6.593-9.924 9.7-2.434 2.208-5.191 4.056-7.702 6.184-3.794 3.215-7.023 6.951-9.773 11.101-3.392 5.119-5.952 10.614-7.375 16.595-.956 4.018-1.325 8.113-1.324 12.249.001 4.252-.09 8.504-.143 12.757-.099 7.987-.203 15.973-.297 23.959-.065 5.52-.114 11.041-.177 16.561-.092 8.049-.165 16.098-.291 24.147a5024 5024 0 0 1-.528 28.526c-.165 7.738-.415 15.474-.564 23.212-.033 1.701.126 3.417.333 5.109.246 2.015 1.408 3.173 3.396 3.538 2.244.411 4.275-.093 6.05-1.546 1.128-.923 2.193-1.931 3.377-2.775 1.982-1.413 3.882-.654 4.417 1.743.589 2.641-.327 4.892-2.072 6.817-1.872 2.064-4.275 3.182-7.042 3.324-1.819.093-3.651-.079-5.819-.143 2.129 1.149 4.097 1.886 6.253 2.09 1.579.149 3.161.261 4.742.395.379.032.76.068 1.135.132 1.841.314 3.49.997 4.078 2.943.604 1.996-.011 3.777-1.481 5.218-1.305 1.28-2.911 2.03-4.718 2.287-6.591.936-12.285-.831-16.988-5.635-3.003-3.068-4.949-6.708-6.078-10.819-.095-.347-.233-.682-.475-1.381-.464 1.19-.762 2.074-1.146 2.919-2.953 6.512-7.256 11.902-13.369 15.705-2.824 1.757-5.844 3.097-9.283 2.989-.814-.026-1.659-.146-2.423-.414-1.673-.586-2.169-2.201-.935-3.456a14.5 14.5 0 0 1 3.64-2.685c3.27-1.679 6.74-2.987 9.931-4.794 5.136-2.908 9.242-6.883 11.371-12.574.104-.277.159-.573.347-1.27-1.487 1.476-2.621 2.705-3.863 3.813-2.452 2.187-5.266 3.753-8.493 4.464a9.3 9.3 0 0 1-2.825.183c-1.88-.182-2.802-2.202-1.622-3.665.653-.809 1.596-1.454 2.525-1.956 1.894-1.022 3.895-1.845 5.802-2.845 3.839-2.011 7.077-4.662 9.019-8.674 1.418-2.93 1.837-6.068 1.916-9.246.129-5.202.086-10.409.166-15.612.128-8.37.306-16.74.444-25.11.13-7.863.24-15.725.349-23.588.108-7.798.16-15.596.314-23.393.212-10.786.488-21.571.753-32.357.101-4.123.25-8.245.375-12.367.011-.375.002-.75.002-1.577-.458.646-.734.927-.884 1.264-1.053 2.377-2.068 4.771-3.124 7.146-.283.636-.638 1.243-1.004 1.837-2.878 4.673-8.378 4.365-11.129-.213-1.905-3.17-1.636-6.592.121-9.813 1.322-2.425 3.19-4.365 5.458-5.999 4.093-2.947 8.612-5.116 13.037-7.46 9.103-4.82 17.791-10.257 25.627-16.989 8.231-7.072 15.352-15.088 21.061-24.349 2.672-4.335 4.864-8.888 6.853-13.564 2.313-5.439 4.127-11.031 5.5-16.773 1.767-7.39 2.541-14.904 1.998-22.462-.59-8.226-2.69-16.088-6.709-23.403-5.012-9.123-12.224-15.906-21.285-20.886-7.692-4.228-16.026-6.607-24.459-8.702-3.442-.855-6.95-1.446-10.423-2.182-1.036-.219-1.919-.064-2.906.421a119.7 119.7 0 0 1-17.818 7.05c-5.35 1.634-10.763 2.969-16.31 3.578-5.317.584-10.669.71-15.715-1.582-1.139-.518-2.255-1.187-3.211-1.99-2.409-2.025-1.852-4.694 1.187-5.599 1.506-.448 3.1-.711 4.67-.815 8.67-.575 17.347-1.054 26.018-1.614 3.242-.209 6.381-.996 9.466-1.994 5.921-1.915 11.698-4.164 17.205-7.1 5.397-2.877 10.424-6.247 14.991-10.332 5.743-5.137 10.831-10.853 15.479-16.98 4.044-5.33 7.412-11.058 9.829-17.293.836-2.157 1.462-4.493 1.622-6.787.158-2.263-.716-4.484-1.753-6.553-2.934-5.852-7.926-8.976-14.116-10.209-3.089-.616-6.301-.823-9.459-.843-9.518-.062-19.037.022-28.555.118q-12.843.129-25.683.413c-7.99.177-15.977.516-23.967.672-9.453.184-18.908.324-28.363.346-11.425.027-22.85-.053-34.275-.16-6.597-.062-13.193-.235-19.787-.418-8.686-.241-17.369-.604-26.056-.794-6.912-.151-13.828-.113-20.742-.171-4.76-.04-9.52-.171-14.279-.129-4.881.043-9.79-.113-14.608.889-7.873 1.638-13.474 5.856-15.791 13.892-.986 3.419-.089 6.527 1.134 9.606 1.972 4.964 4.552 9.604 7.53 14.047 4.473 6.671 9.749 12.663 15.486 18.228 5.768 5.594 12.354 10.09 19.605 13.621 6.011 2.928 12.227 5.304 18.684 6.956 3.048.78 6.251 1.03 9.402 1.312 4.865.436 9.744.721 14.62 1.014 2.468.148 4.948.102 7.413.28 1.634.118 3.271.389 4.869.756 1.266.291 2.414.959 2.713 2.378.312 1.481-.467 2.542-1.553 3.45-2.217 1.853-4.865 2.713-7.628 3.207-5.258.94-10.491.45-15.701-.487-5.434-.978-10.777-2.367-15.949-4.258-4.692-1.717-9.248-3.811-13.829-5.819-.805-.353-1.53-.523-2.368-.372-6.24 1.131-12.435 2.452-18.498 4.344-4.295 1.34-8.58 2.68-12.686 4.567-10.307 4.737-18.72 11.645-24.514 21.473-3.275 5.555-5.559 11.535-6.518 17.957-.402 2.69-.929 5.384-1.031 8.091-.301 8.025.619 15.915 2.674 23.712 2.178 8.265 5.285 16.14 9.26 23.669 4.051 7.673 9.381 14.418 15.301 20.756 4.398 4.708 9.258 8.848 14.348 12.733 4.385 3.347 9.062 6.285 13.886 8.963 3.991 2.216 8.072 4.271 12.058 6.495 2.213 1.234 4.319 2.66 6.462 4.018 2.243 1.421 3.927 3.359 5.34 5.598 1.712 2.712 1.974 5.6 1.184 8.598-.71 2.698-3.968 5.894-7.696 5.103-1.833-.389-3.101-1.462-4.023-2.941-.868-1.392-1.577-2.892-2.258-4.388-.884-1.941-1.672-3.926-2.501-5.892q-.262.065-.527.138m191.227 13.316-.5.016c-.034 1.044-.087 2.087-.1 3.131-.117 10.219-.225 20.437-.34 30.656-.084 7.424-.141 14.848-.274 22.271-.112 6.28-.36 12.557-.464 18.837-.1 6.03-.077 12.061-.138 18.092-.096 9.517-.292 19.033-.293 28.549-.001 4.118.263 8.246.62 12.35.257 2.949.868 5.867 1.362 9.062-.462-.728-.84-1.273-1.167-1.848-1.565-2.742-2.324-5.742-2.814-8.83-.057-.362-.256-.702-.389-1.052l-.429.063c-.109 2.077-.485 4.182-.277 6.227.631 6.188 3.023 11.608 7.641 15.927 4.053 3.791 8.908 4.904 14.268 4.265 1.408-.168 2.692-.751 3.717-1.773.765-.763 1.117-1.718.87-2.779-.253-1.086-1.161-1.459-2.146-1.599-1.003-.142-2.019-.29-3.027-.278-3.386.04-6.515-.923-9.503-2.387-1.301-.637-2.655-1.336-3.298-2.757-.756-1.67-1.573-3.338-2.082-5.09-1.59-5.478-1.803-11.137-1.811-16.788-.009-6.598.145-13.196.242-19.793.118-7.995.233-15.989.381-23.983.114-6.155.313-12.308.409-18.462.156-10.023.358-20.047.356-30.07-.002-8.949-.237-17.898-.41-26.846-.036-1.705-.266-3.407-.404-5.111m-194.166.128-.433-.045c-.118.389-.314.773-.341 1.168-.154 2.279-.352 4.56-.38 6.842-.104 8.371-.217 16.743-.196 25.114.025 9.897.15 19.794.301 29.689.095 6.214.349 12.426.47 18.639.165 8.438.272 16.877.402 25.316.134 8.756.463 17.517-.292 26.26-.383 4.441-1.058 8.838-3.374 12.767-.465.788-1.113 1.573-1.869 2.065-3.081 2.007-6.467 3.159-10.176 3.309-1.392.056-2.802.118-4.162.387-1.757.347-2.406 1.659-1.652 3.285.301.651.868 1.321 1.49 1.649 1.047.551 2.208 1.066 3.366 1.194 6.995.773 12.506-1.902 16.659-7.494 1.991-2.681 3.398-5.679 4.117-8.922.951-4.292 1.27-5.969-.154-10.63-.765 4.449-1.571 8.608-4.389 12.316.495-2.683 1.064-5.07 1.356-7.49.794-6.565.817-13.175.786-19.773-.044-9.201-.26-18.402-.378-27.603-.071-5.586-.048-11.174-.15-16.759-.173-9.517-.466-19.032-.608-28.55-.182-12.179-.268-24.359-.388-36.538-.022-2.065-.005-4.131-.005-6.196m16.581-8.647c-.026-1.509-1.497-2.981-2.922-2.923-1.507.061-2.84 1.531-2.769 3.054.072 1.555 1.487 2.855 3.028 2.781 1.505-.071 2.689-1.367 2.663-2.912m163.048 2.915c1.532.069 2.945-1.23 3.038-2.793.087-1.468-1.304-2.988-2.792-3.048-1.384-.056-2.764 1.26-2.873 2.741-.123 1.667 1.032 3.029 2.627 3.1m-9.206 150.104c3.455.871 10.377-2.978 12.013-6.659-3.751 3.079-8.33 4.015-12.013 6.659m-146.991.136c-1.304-1.382-2.849-1.672-4.142-2.358-1.279-.678-2.658-1.166-3.953-1.815-1.307-.654-2.565-1.404-4.219-2.319 2.745 4.059 8.679 7.208 12.314 6.492" style="fill:#d4a373"/><path d="m131.53 121.349-3.958 1.943a234 234 0 0 0-18.008 9.846c-7.277 4.396-12.525 10.583-16.913 17.689-3.214 5.206-5.863 10.664-7.705 16.495-2.893 9.158-4.961 18.476-5.425 28.112-.185 3.845.383 7.599 1.127 11.331.719 3.607 1.548 7.194 2.425 10.766 1.354 5.515 3.66 10.674 6.194 15.725 5.872 11.704 13.314 22.349 21.996 32.129 4.848 5.461 9.84 10.793 14.683 16.258 2.946 3.324 5.836 6.707 8.56 10.213 2.834 3.648 4.813 7.763 5.644 12.356.74 4.094-1.775 9.389-5.376 11.41-2.331 1.308-4.514 1.104-6.482-.717-1.787-1.653-2.9-3.719-3.071-6.158-.101-1.445-.005-2.922.173-4.364.37-3.001.286-5.961-.525-8.876-1.162-4.174-2.602-8.251-5.341-11.682-4.712-5.903-9.418-11.816-14.302-17.576-5.759-6.793-11.318-13.71-15.705-21.497-3.932-6.98-7.384-14.197-10.234-21.676-1.9-4.988-2.887-10.246-3.669-15.528-1.377-9.311-.846-18.641.183-27.904 1.501-13.525 6.429-25.783 14.95-36.481 4.031-5.061 9.044-9.033 14.455-12.534 3.148-2.038 6.404-3.86 9.852-5.337.164-.07.324-.151.485-.227l-.215-.374c-1.643.401-3.296.766-4.928 1.209a76.8 76.8 0 0 0-18.374 7.628c-7.595 4.384-13.481 10.446-18.053 17.888-3.661 5.958-6.985 12.089-9.317 18.68-1.199 3.389-1.82 6.981-2.733 10.473-.528 2.018-1.004 4.062-1.729 6.011-.383 1.031-1.145 1.98-1.918 2.793-1.317 1.385-2.954 1.345-4.418.111-1.233-1.039-1.777-2.451-2.174-3.934-1.229-4.589-.557-9.079.897-13.476 3.171-9.584 8.748-17.685 15.667-24.913 8.933-9.333 19.643-15.967 31.664-20.538 3.198-1.216 6.485-2.195 9.731-3.285.472-.159.941-.327 1.39-.564-8.481.75-16.841 2.24-24.919 4.845-7.496 2.417-14.699 5.619-20.889 10.676-1.814 1.482-3.479 3.15-5.318 4.598-.813.64-1.853 1.065-2.855 1.374-1.183.364-2.081-.242-2.697-1.272-.686-1.148-.846-2.372-.552-3.67.463-2.045 1.528-3.746 2.989-5.211 3.492-3.504 7.604-6.099 12.091-8.114 6.642-2.983 13.61-4.832 20.823-5.734 4.141-.518 8.3-.9 12.487-1.508-1.281-.172-2.57-.3-3.842-.524-8.744-1.542-17.487-3.11-25.984-5.754-1.931-.601-3.806-1.41-5.655-2.237-1.598-.715-2.355-1.896-2.177-3.031.191-1.22 1.304-2.044 3.171-2.239 2.761-.288 5.457.226 8.074.989 6.998 2.043 13.96 4.208 20.941 6.306 4.063 1.221 8.137 2.409 12.209 3.599.348.102.726.105 1.161-.037-.305-.188-.595-.409-.918-.559-8.526-3.963-16.7-8.551-24.61-13.634-5.606-3.601-11.191-7.226-16.367-11.43-1.316-1.069-2.42-2.406-3.578-3.66-.333-.361-.539-.852-.755-1.306-.729-1.531.508-3.02 1.936-2.818 1.096.155 2.29.434 3.185 1.037 3.208 2.161 6.289 4.509 9.451 6.74 6.266 4.422 12.46 8.953 18.863 13.168 4.601 3.029 9.49 5.621 14.256 8.398a2.04 2.04 0 0 0 1.308.278c-.291-.257-.568-.534-.876-.769-7.576-5.782-14.836-11.937-21.629-18.62-4.523-4.449-8.999-8.956-13.299-13.619-3.405-3.693-6.312-7.798-8.107-12.56-.373-.99-.535-2.081-.648-3.141-.11-1.036.054-2.099 1.117-2.634 1.114-.561 2.279-.446 3.191.402 1.06.985 2.137 2.009 2.947 3.194 1.931 2.827 3.736 5.742 5.543 8.652 4.061 6.539 8.78 12.58 13.775 18.421a134 134 0 0 0 19.642 18.772c2.202 1.712 4.455 3.359 6.698 5.017.322.238.72.373 1.267.29-1.143-1.235-2.251-2.505-3.436-3.698-5.384-5.422-10.121-11.349-14.145-17.851-2.601-4.202-5.443-8.263-7.88-12.556-3.063-5.397-5.915-10.921-8.68-16.479a107 107 0 0 1-4.593-10.64c-.892-2.419-1.404-5.001-1.865-7.55-.342-1.895.173-2.804 1.278-3.236.986-.386 2.302.058 3.224 1.461.896 1.363 1.616 2.873 2.212 4.397 2.219 5.669 4.265 11.407 6.547 17.049 2.926 7.236 6.082 14.386 10.116 21.082 2.091 3.47 4.492 6.772 6.955 9.995 4.816 6.302 9.753 12.512 14.688 18.721 1.102 1.387 2.413 2.608 3.615 3.916.294.319.539.683 1.011 1.289m.841 190.68c2.233.041 4.142-1.575 4.152-3.517.013-2.385-1.8-4.233-4.157-4.238-2.319-.005-3.865 1.527-3.959 3.921-.088 2.24 1.514 3.789 3.964 3.834M56.37 185.915c1.126.012 2.113-1.011 2.12-2.199.007-1.206-.9-2.142-2.12-2.187-1.341-.049-2.382.891-2.367 2.141.013 1.156 1.148 2.231 2.367 2.245m3.61-46.623c.044-.913-.728-1.747-1.621-1.752-.82-.005-1.553.726-1.588 1.583-.039.957.645 1.667 1.639 1.703.869.032 1.525-.608 1.57-1.534M388.034 112.584c1.435-.74 2.889-1.446 4.303-2.225 7.674-4.228 15.033-8.953 22.122-14.1 5.44-3.951 10.868-7.918 16.31-11.865.717-.52 1.44-1.081 2.246-1.415.798-.33 1.708-.562 2.562-.544 1.59.034 2.41 1.313 1.743 2.769-.465 1.015-1.099 2.055-1.924 2.782-2.375 2.09-4.796 4.151-7.359 6.001-8.133 5.873-16.627 11.192-25.435 15.993-3.227 1.758-6.567 3.309-9.854 4.956-.553.277-1.103.56-1.547 1.163 1.125-.296 2.26-.558 3.373-.895 9.22-2.787 18.428-5.615 27.657-8.37 3.278-.979 6.579-1.977 10.052-1.898 1.049.024 2.177.199 3.116.633 1.604.741 1.819 2.364.556 3.585-.577.558-1.316.993-2.049 1.34-4.966 2.357-10.295 3.599-15.617 4.739-6.195 1.327-12.466 2.303-18.704 3.435-.177.032-.348.1-.941.275 1.799.185 3.182.38 4.572.461 8.399.49 16.623 1.902 24.56 4.743 5.835 2.089 11.255 4.93 15.851 9.181 1.659 1.534 3.088 3.243 3.61 5.478.236 1.011.311 2.176.049 3.163-.617 2.33-2.489 3.08-4.587 1.879a15.5 15.5 0 0 1-3.159-2.425c-4.666-4.626-10.191-7.89-16.136-10.574-8.403-3.793-17.248-5.901-26.32-7.217-1.755-.255-3.51-.518-5.266-.763-.177-.025-.367.047-.636.334.615.194 1.226.398 1.844.58 9.187 2.697 17.888 6.493 25.896 11.758 10.615 6.979 19.261 15.851 25.495 26.994 2.78 4.968 4.889 10.157 5.613 15.848.367 2.885.068 5.702-.939 8.419-.301.812-.767 1.62-1.346 2.26-1.675 1.854-3.595 1.786-5.215-.081-1.055-1.216-1.834-2.587-2.204-4.159-.71-3.023-1.381-6.055-2.086-9.079-1.042-4.466-2.735-8.688-4.711-12.819-3.018-6.311-6.478-12.345-10.791-17.868-3.888-4.979-8.771-8.788-14.206-11.907-7.264-4.169-15.086-6.873-23.256-8.614-.174-.037-.363-.005-.829-.005 1.56.712 2.875 1.292 4.173 1.907 5.305 2.517 10.181 5.751 14.669 9.48 6.732 5.594 11.742 12.575 15.446 20.501 1.937 4.144 3.528 8.414 4.721 12.828 1.362 5.039 2.177 10.169 2.365 15.388.174 4.816.375 9.633.418 14.451.059 6.522-1.203 12.873-2.837 19.152-2.03 7.798-5.732 14.904-9.308 22.051-4.577 9.147-10.62 17.285-17.297 24.993-4.032 4.655-7.946 9.413-11.861 14.168-1.33 1.615-2.546 3.329-3.737 5.051-2.939 4.248-4.704 8.976-5.402 14.073-.222 1.617-.089 3.289-.041 4.933.044 1.521.264 3.038.276 4.558.018 2.469-1 4.575-2.622 6.369-2.121 2.344-4.695 2.64-7.363.948-3.798-2.407-5.89-7.822-4.753-12.381.964-3.866 2.558-7.487 5.029-10.594 3.395-4.269 6.966-8.403 10.553-12.514 6.136-7.032 12.55-13.832 18.471-21.038 8.711-10.602 15.779-22.243 20.797-35.078 1.673-4.279 2.643-8.731 3.612-13.19a169 169 0 0 0 1.51-7.85c.95-5.651.326-11.284-.544-16.861-1.323-8.481-3.385-16.807-6.772-24.716-3.416-7.977-7.905-15.313-14-21.579-2.945-3.027-6.443-5.314-10.021-7.497-6.124-3.736-12.469-7.051-18.983-10.05-.386-.177-.711-.485-1.142-.786.356-.475.612-.913.957-1.262 5.598-5.663 10.302-12.063 15.098-18.38 3.107-4.092 6.266-8.173 8.991-12.517 2.585-4.122 4.764-8.518 6.893-12.905 4.187-8.626 7.425-17.647 10.771-26.62.421-1.128.829-2.284 1.44-3.309.537-.901 1.23-1.804 2.067-2.412 1.619-1.177 3.184-.363 3.319 1.623.051.755.081 1.549-.094 2.274-.535 2.215-1.017 4.463-1.804 6.594-2.331 6.311-5.365 12.302-8.418 18.293-3.722 7.305-8.113 14.187-12.554 21.052-2.689 4.158-5.42 8.287-8.722 11.988-2.87 3.217-5.856 6.329-8.791 9.488-.17.183-.34.368-.41.773.393-.187.823-.323 1.174-.57 6.656-4.678 12.914-9.83 18.727-15.534 5.725-5.617 10.913-11.702 15.67-18.131 3.127-4.226 5.853-8.749 8.755-13.141 1.118-1.693 2.139-3.46 3.373-5.063.796-1.035 1.787-2.012 2.889-2.697 1.821-1.132 3.726-.107 3.793 2.019.037 1.168-.219 2.408-.619 3.516-1.705 4.732-4.639 8.736-7.903 12.469-7.368 8.426-15.489 16.099-24.001 23.351-3.91 3.331-7.985 6.467-11.988 9.687-.192.154-.411.275-.617.411zM368.787 312.03c2.859.109 4.091-2.108 4.058-3.773-.048-2.418-1.727-4.042-4.119-3.979-2.314.061-3.983 1.806-3.989 4.173-.006 2.015 1.79 3.602 4.05 3.579m76.044-126.121c1.252-.015 2.339-1.043 2.36-2.234.023-1.258-.994-2.186-2.346-2.141-1.215.041-2.143.982-2.141 2.174.002 1.166 1.016 2.214 2.127 2.201m-.361-46.737c-.013-.83-.751-1.601-1.559-1.629-.897-.031-1.674.765-1.661 1.702.013.942.638 1.595 1.514 1.585.974-.012 1.72-.737 1.706-1.658M256.614 69.846c.04 3.785-2.228 6.253-5.871 6.255-4.19.003-5.929-2.349-6.158-5.979-.203-3.221 2.654-6.149 5.884-6.233 3.271-.083 6.408 3.055 6.145 5.957M224.608 68.274c-.006 2.277-1.45 3.589-3.949 3.589-2.108-.001-3.672-1.62-3.633-3.764.036-2.003 1.8-3.862 3.687-3.826 1.765.033 4.033 1.331 3.895 4.001M280.39 71.855c-2.479-.073-3.904-1.477-3.793-3.737.111-2.266 1.911-3.973 4.06-3.853 1.916.107 3.539 1.947 3.52 3.99-.02 2.125-1.638 3.664-3.787 3.6M269.517 68.87c.056 1.867-1.673 3.773-3.508 3.866-1.943.098-3.47-1.472-3.566-3.668-.083-1.898 1.485-3.568 3.397-3.617 1.858-.046 3.622 1.593 3.677 3.419M238.747 68.951c-.005 2.179-1.482 3.814-3.421 3.788-1.865-.025-3.568-1.801-3.593-3.747-.024-1.842 1.636-3.509 3.526-3.541 1.943-.033 3.493 1.522 3.488 3.5M295.725 63.899c1.854.297 3.198 1.125 3.194 3.491-.003 1.571-1.338 2.754-2.992 2.735-2.117-.024-3.373-1.247-3.343-3.255.022-1.456 1.677-3.022 3.141-2.971M205.342 70.12c-1.745.045-3.087-1.202-3.084-2.863a3.334 3.334 0 0 1 3.17-3.356c1.464-.087 3.12 1.43 3.181 2.913.083 2.011-1.143 3.252-3.267 3.306M191.785 63.457c1.316-.046 2.327.886 2.367 2.183.037 1.2-1.02 2.35-2.213 2.407-1.396.067-2.409-.802-2.422-2.078-.016-1.474.878-2.463 2.268-2.512M309.341 68.048c-1.172-.021-2.311-1.178-2.307-2.342.004-1.285 1.017-2.264 2.328-2.25 1.447.015 2.452 1.135 2.37 2.64-.063 1.142-1.085 1.976-2.391 1.952M183.213 64.978c.002 1.07-1.012 2.078-2.074 2.062-.979-.015-1.802-.82-1.844-1.805-.05-1.15.825-2.111 1.945-2.137 1.05-.026 1.971.853 1.973 1.88M321.905 65.208c-.031 1.076-.94 1.911-2 1.834-.979-.071-1.898-1.048-1.913-2.035-.016-1.024.893-1.917 1.948-1.91 1.13.008 1.998.94 1.965 2.111M331.113 64.207c-.039.789-.735 1.507-1.443 1.486-.701-.02-1.361-.653-1.372-1.315-.014-.782.814-1.612 1.586-1.59.681.019 1.265.693 1.229 1.419M172.891 64.341c.007.687-.603 1.311-1.315 1.348-.717.037-1.406-.646-1.458-1.445-.049-.76.475-1.407 1.174-1.45.775-.047 1.591.742 1.599 1.547M338.712 63.661c-.676.462-1.054.922-1.382.889-.36-.036-.674-.527-1.008-.819.307-.326.581-.866.93-.918.332-.051.742.404 1.46.848M165.337 63.818c-.734.385-1.103.716-1.501.756-.574.058-1.014-.39-.84-.935.116-.363.637-.799 1.001-.822.324-.02.681.481 1.34 1.001M345.399 63.532c-.633.346-1.017.729-1.293.662-.305-.074-.613-.531-.707-.879-.038-.139.513-.628.764-.605.338.03.643.403 1.236.822M157.03 64.633c-.392-.575-.826-.937-.774-1.207.057-.296.536-.632.881-.702.188-.038.692.461.674.687-.027.337-.389.648-.781 1.222" style="fill:#d4a373"/></svg>
