<svg xmlns="http://www.w3.org/2000/svg" xml:space="preserve" viewBox="0 0 750 500">
<path d="M330.211 71.502c-.856-3.074-4.066-4.383-6.809-2.775-.385.226-.756.475-1.204.759-.253-.434-.442-.774-.646-1.104-.96-1.552-1.767-3.231-2.916-4.627-3.428-4.166-7.93-6.416-13.279-7.09-3.756-.473-7.173.337-10.273 2.444-1.917 1.303-3.244 3.058-3.495 5.458-.165 1.584.277 2.55 1.361 3.053 1.185.549 2.332.32 3.408-.813.545-.573 1.002-1.25 1.397-1.939.512-.892.894-1.857 1.384-2.763.754-1.392 1.606-2.126 2.832-2.471-.206.472-.423.871-.558 1.296-.878 2.778.985 5.142 3.888 4.943.227-.015.455-.06.674-.12 1.599-.43 3.186-.906 4.796-1.29 1.759-.421 3.647-.664 5.123.514 2.194 1.75 4.077 3.788 4.896 6.658 1.879 6.579.775 12.509-3.795 17.617-4.2 4.694-9.536 7.605-15.594 9.22-.639.17-1.307.23-2.029.352.072-.688.179-1.194.167-1.697-.038-1.604-1.063-2.709-2.934-3.39-2.013-.732-4.062-.589-6.115-.366-4.801.522-9.604.735-14.372-.199a188 188 0 0 1-10.368-2.323c-7.769-1.986-15.563-3.754-23.577-4.503-5.146-.481-10.257-.87-15.404-.114-5.086.748-9.94 2.19-14.448 4.681-3.242 1.792-6.011 4.16-8.145 7.178-1.982-.826-4.27-2.727-5.278-4.349-1.385-2.229-1.038-3.752 1.157-5.197.57-.376 1.183-.738 1.631-1.238.904-1.009.624-2.259-.627-2.808-.491-.215-1.128-.307-1.649-.203-1.557.311-2.735 1.216-3.281 2.732-.637 1.767-.746 3.574-.047 5.374.826 2.126 2.066 3.951 3.89 5.344.99.756 2.001 1.482 3.05 2.257-.291.803-.64 1.532-.817 2.3-.397 1.717-.969 3.441-.35 5.227.584 1.686 2.105 2.348 3.708 1.638 2.658-1.177 3.8-4.58 2.381-7.114-.272-.486-.563-.96-1.004-1.709.744-.641 1.465-1.295 2.221-1.907.933-.756 1.854-1.538 2.851-2.202 4.058-2.701 8.568-4.329 13.29-5.379 2.913-.648 5.877-1.036 8.873-.778 2.116.182 4.204.545 6.121 1.545.698.364 1.265.825 1.127 1.728-.142.933-.848 1.174-1.632 1.207-.907.039-1.82-.052-2.727-.012-1.359.06-1.853.866-1.293 2.083.163.354.418.688.699.962 1.643 1.608 4.628 1.446 6.368-.326 1.793-1.825 1.714-3.929-.131-5.718-1.296-1.256-2.912-1.799-4.581-2.206-4.812-1.174-9.567-.578-14.261.669-6.5 1.726-12.581 4.265-17.256 9.377-.152.166-.455.194-.688.286l-.259-.29c.164-.279.292-.588.498-.832 1.559-1.851 3.295-3.519 5.359-4.793 9.171-5.658 19.205-7.194 29.723-5.884 6.968.868 13.532 3.295 20.058 5.809 5.389 2.076 10.777 4.199 16.293 5.885 6.241 1.908 12.709 2.404 19.216 1.605 7.598-.933 14.414-3.941 20.774-8.077 4.953-3.221 8.906-7.352 11.381-12.781 1.283-2.808 2.116-5.695 1.247-8.814m-125.924 29.664.478.201c-.065.956-.832 1.574-1.436 2.282zm1.56 1.274c1.378 1.844.758 4.237-1.203 5.005-.642.251-1.084-.15-.99-.898.105-.834 1.297-3.106 2.193-4.107M181.698 99.886c.344-.25.737-.574 1.166-.84 1.773-1.1 3.3-2.457 4.448-4.213 1.476-2.257 2.132-4.668 1.333-7.341-.546-1.827-1.793-2.893-3.633-3.245-1.072-.206-2.05.318-2.434 1.187-.372.841-.119 1.625.845 2.369.587.453 1.266.788 1.849 1.246 1.088.857 1.602 2.488 1.1 3.507-1.262 2.561-3.339 4.269-5.662 5.531-1.57-1.569-2.907-3.157-4.49-4.442-6.088-4.942-13.302-6.936-20.945-7.7-3.835-.384-7.654-.199-11.471.31-3.46.461-6.981.603-10.386 1.313-6.544 1.366-13.032 3.01-19.531 4.586-4.076.988-8.198 1.664-12.389 1.618-3.086-.034-6.166-.416-9.253-.515a14.5 14.5 0 0 0-3.889.416c-2.417.595-3.785 2.183-3.136 4.798.018.074-.097.181-.193.345-3.05-.486-5.939-1.531-8.685-2.964-4.536-2.367-8.399-5.47-11.134-9.912-3.317-5.387-3.294-15.374 2.539-20.21 1.176-.975 2.354-1.651 3.857-1.5 1.238.125 2.462.41 3.682.676 1.337.291 2.646.79 3.995.935 2.9.311 4.786-2.098 3.931-4.881-.144-.468-.346-.919-.522-1.378.694.212 1.281.522 1.604 1.007.881 1.325 1.612 2.75 2.479 4.085.585.901 1.218 1.8 1.978 2.549.857.845 1.947.864 3.03.335 1.022-.5 1.309-1.432 1.285-2.438-.035-1.524-.54-2.906-1.506-4.116-1.644-2.057-3.863-3.204-6.314-3.923-3.169-.929-6.335-.677-9.466.272-4.29 1.301-7.905 3.597-10.499 7.311-1.041 1.491-1.924 3.093-2.958 4.774-.35-.224-.633-.411-.921-.588-2.98-1.825-6.227-.476-7.063 2.926a9.7 9.7 0 0 0 .002 4.757c1.311 5.233 4.239 9.468 8.149 13.067 4.534 4.173 9.924 6.957 15.597 9.17 8.132 3.171 16.523 3.335 25.021 1.767 5.041-.93 9.795-2.761 14.542-4.593 5.868-2.265 11.672-4.682 17.743-6.4 10.388-2.94 20.667-2.915 30.861.819 4.528 1.659 8.596 4.03 11.795 7.72.346.399.643.841.999 1.311-.788.477-1.016-.013-1.339-.296-1.378-1.203-2.658-2.558-4.171-3.56-6.145-4.066-12.987-6.193-20.295-6.762-3.275-.255-6.543.083-9.556 1.561-1.629.798-3.057 1.9-3.212 3.909-.124 1.617 1.092 3.261 2.77 3.982 1.94.834 3.656.604 4.938-.664.738-.729 1.088-1.706.758-2.304-.481-.873-1.336-.704-2.133-.706-.849-.002-1.72.053-2.538-.12-.405-.085-.846-.565-1.034-.975-.259-.564 0-1.149.54-1.485.531-.33 1.092-.639 1.678-.849 3.423-1.223 6.938-1.322 10.505-.829 5.974.825 11.587 2.662 16.671 5.955 1.866 1.209 3.571 2.624 4.882 4.427-.272.436-.49.768-.69 1.11-1.499 2.561-.825 5.426 1.658 7.056 1.95 1.28 3.979.467 4.415-1.84a6.5 6.5 0 0 0-.022-2.383c-.308-1.556-.757-3.084-1.175-4.735m-1.655 7.585c-2.02-.627-2.71-3.305-1.207-5.015 1.155 1.18 1.686 2.666 2.113 4.181.167.592-.359 1.004-.906.834m-.112-6.159.363-.155.993 2.506c-.51-.758-1.503-1.306-1.356-2.351" style="fill:#d4a373"/>
</svg>
